<?xml version="1.0" standalone="no"?>
<!DOCTYPE svg PUBLIC "-//W3C//DTD SVG 20010904//EN"
 "http://www.w3.org/TR/2001/REC-SVG-20010904/DTD/svg10.dtd">
<svg version="1.0" xmlns="http://www.w3.org/2000/svg"
 width="700.000000pt" height="700.000000pt" viewBox="0 0 700.000000 700.000000"
 preserveAspectRatio="xMidYMid meet">
<metadata>
Created by potrace 1.11, written by Peter Selinger 2001-2013
</metadata>
<g transform="translate(0.000000,700.000000) scale(0.100000,-0.100000)"
fill="#000000" stroke="none">
<path d="M3447 6930 c-96 -139 -255 -288 -430 -404 -92 -61 -264 -153 -347
-186 -30 -12 -68 -28 -85 -35 -65 -29 -337 -115 -450 -144 -120 -30 -351 -75
-435 -86 -25 -3 -56 -8 -70 -11 -14 -2 -43 -6 -65 -9 -131 -13 -173 -18 -200
-21 -27 -3 -158 -10 -330 -19 -33 -2 -62 -4 -65 -4 -8 -2 -4 -3308 4 -3386 13
-125 16 -149 32 -235 73 -403 244 -757 540 -1116 59 -71 259 -279 331 -345
381 -344 899 -650 1490 -880 123 -47 131 -49 168 -34 11 4 74 30 140 56 354
140 648 290 935 477 118 76 325 227 358 260 10 10 28 25 39 33 60 42 260 235
367 354 62 69 190 236 254 330 167 248 282 519 342 806 26 127 30 155 46 299
8 73 12 3379 4 3381 -3 1 -30 3 -60 4 -135 5 -318 16 -336 19 -10 2 -53 7 -94
10 -81 7 -182 21 -270 36 -30 5 -71 11 -91 14 -50 7 -267 54 -349 76 -200 51
-428 134 -605 220 -126 61 -312 175 -390 239 -61 50 -241 238 -270 281 -65 98
-55 97 -108 20z m-277 -1398 c73 -47 194 -143 235 -187 33 -36 99 -110 120
-136 92 -113 232 -388 272 -534 1 -5 12 -41 23 -80 24 -79 65 -275 75 -350 3
-27 8 -59 10 -70 2 -11 6 -42 9 -70 11 -104 36 -280 51 -360 26 -146 81 -276
127 -303 22 -13 33 -14 66 -4 75 23 129 104 176 263 26 91 29 106 55 273 l17
109 41 -69 c96 -162 187 -394 258 -659 19 -72 21 -79 40 -175 15 -79 19 -103
30 -185 4 -27 8 -61 11 -75 10 -67 4 -285 -11 -375 -15 -97 -56 -270 -74 -310
-4 -11 -18 -47 -31 -80 -96 -255 -296 -513 -499 -643 -66 -42 -181 -95 -189
-87 -3 3 1 32 10 65 18 69 17 239 -2 334 -14 70 -51 180 -86 254 -26 54 -126
199 -198 287 -23 27 -48 58 -56 69 -71 91 -346 373 -355 364 -2 -2 -6 -41 -9
-88 -13 -200 -72 -371 -178 -515 -24 -33 -64 -89 -89 -125 -129 -188 -167
-370 -123 -583 6 -27 4 -28 -17 -22 -89 28 -286 165 -397 276 -123 122 -212
255 -265 394 -30 78 -82 275 -92 345 -4 24 -8 47 -10 50 -17 29 -26 381 -13
495 39 328 177 630 443 970 43 55 90 118 104 139 138 208 209 334 279 499 42
98 107 298 117 360 3 17 8 43 10 57 3 14 8 36 10 50 12 60 19 186 19 328 0 83
2 152 5 152 3 0 40 -22 81 -48z"/>
</g>
</svg>
