<svg class="icon" xmlns="http://www.w3.org/2000/svg" width="125" height="80" viewBox="0 0 125 80">
  <title>
    us-flag-border-ib
  </title>
  <path fill="#fff" d="M0 0h125v80H0z"/>
  <path fill="#bf2726" d="M7.5 67.5h110v5H7.5zm0-10h110v5H7.5zm0-10h110v5H7.5zm0-10h110v5H7.5zm0-10h110v5H7.5zm0-10h110v5H7.5zm0-10h110v5H7.5z"/>
  <path fill="#212738" d="M7.5 7.5h51v35h-51z"/>
  <g fill="#fff">
    <circle cx="13" cy="13" r="1.5"/>
    <circle cx="21" cy="13" r="1.5"/>
    <circle cx="29" cy="13" r="1.5"/>
    <circle cx="37" cy="13" r="1.5"/>
    <circle cx="45" cy="13" r="1.5"/>
    <circle cx="53" cy="13" r="1.5"/>
    <circle cx="17" cy="16" r="1.5"/>
    <circle cx="25" cy="16" r="1.5"/>
    <circle cx="33" cy="16" r="1.5"/>
    <circle cx="41" cy="16" r="1.5"/>
    <circle cx="49" cy="16" r="1.5"/>
    <circle cx="13" cy="19" r="1.5"/>
    <circle cx="21" cy="19" r="1.5"/>
    <circle cx="29" cy="19" r="1.5"/>
    <circle cx="37" cy="19" r="1.5"/>
    <circle cx="45" cy="19" r="1.5"/>
    <circle cx="53" cy="19" r="1.5"/>
    <circle cx="17" cy="22" r="1.5"/>
    <circle cx="25" cy="22" r="1.5"/>
    <circle cx="33" cy="22" r="1.5"/>
    <circle cx="41" cy="22" r="1.5"/>
    <circle cx="49" cy="22" r="1.5"/>
    <circle cx="13" cy="25" r="1.5"/>
    <circle cx="21" cy="25" r="1.5"/>
    <circle cx="29" cy="25" r="1.5"/>
    <circle cx="37" cy="25" r="1.5"/>
    <circle cx="45" cy="25" r="1.5"/>
    <circle cx="53" cy="25" r="1.5"/>
    <circle cx="17" cy="28" r="1.5"/>
    <circle cx="25" cy="28" r="1.5"/>
    <circle cx="33" cy="28" r="1.5"/>
    <circle cx="41" cy="28" r="1.5"/>
    <circle cx="49" cy="28" r="1.5"/>
    <circle cx="13" cy="31" r="1.5"/>
    <circle cx="21" cy="31" r="1.5"/>
    <circle cx="29" cy="31" r="1.5"/>
    <circle cx="37" cy="31" r="1.5"/>
    <circle cx="45" cy="31" r="1.5"/>
    <circle cx="53" cy="31" r="1.5"/>
    <circle cx="17" cy="34" r="1.5"/>
    <circle cx="25" cy="34" r="1.5"/>
    <circle cx="33" cy="34" r="1.5"/>
    <circle cx="41" cy="34" r="1.5"/>
    <circle cx="49" cy="34" r="1.5"/>
    <circle cx="13" cy="37" r="1.5"/>
    <circle cx="21" cy="37" r="1.5"/>
    <circle cx="29" cy="37" r="1.5"/>
    <circle cx="37" cy="37" r="1.5"/>
    <circle cx="45" cy="37" r="1.5"/>
    <circle cx="53" cy="37" r="1.5"/>
  </g>
</svg>
